{
	"asset":{
		"generator":"Khronos glTF Blender I/O v4.5.47",
		"version":"2.0"
	},
	"extensionsUsed":[
		"KHR_lights_punctual"
	],
	"extensionsRequired":[
		"KHR_lights_punctual"
	],
	"extensions":{
		"KHR_lights_punctual":{
			"lights":[
				{
					"color":[
						0.9794130325317383,
						1,
						0
					],
					"intensity":2730.4849889966013,
					"type":"point",
					"name":"Point"
				},
				{
					"color":[
						0,
						0.3219839930534363,
						1
					],
					"intensity":7759.725192162546,
					"type":"point",
					"name":"Point.001"
				},
				{
					"color":[
						1,
						0.011478452011942863,
						0.0038045633118599653
					],
					"intensity":543.5141306588226,
					"type":"point",
					"name":"Point.002"
				},
				{
					"color":[
						1,
						0.511765718460083,
						0.0004975475021637976
					],
					"intensity":38982.97754345236,
					"spot":{
						"innerConeAngle":0.3337942263919169,
						"outerConeAngle":0.39269909262657166
					},
					"type":"spot",
					"name":"Spot"
				}
			]
		}
	},
	"scene":0,
	"scenes":[
		{
			"name":"Scene",
			"nodes":[
				0,
				1,
				2,
				3,
				4,
				5,
				6,
				7,
				8,
				9,
				10
			]
		}
	],
	"nodes":[
		{
			"mesh":0,
			"name":"SphereFar",
			"scale":[
				1.399999976158142,
				1.399999976158142,
				1.399999976158142
			],
			"translation":[
				0.48804187774658203,
				1.924268364906311,
				-2.527360677719116
			]
		},
		{
			"camera":0,
			"name":"Camera",
			"rotation":[
				-0.08495642989873886,
				0,
				0,
				0.9963846802711487
			],
			"translation":[
				0,
				3.29164981842041,
				10.759950637817383
			]
		},
		{
			"extensions":{
				"KHR_lights_punctual":{
					"light":0
				}
			},
			"name":"L_Pt_Yellow",
			"rotation":[
				-0.7071068286895752,
				0,
				0,
				0.7071068286895752
			],
			"translation":[
				-0.7136147022247314,
				2.0829710960388184,
				-1.063820719718933
			]
		},
		{
			"mesh":1,
			"name":"Icosphere",
			"translation":[
				-0.9980197548866272,
				1.6219587326049805,
				0.5721979737281799
			]
		},
		{
			"name":"CameraTarget",
			"translation":[
				0,
				1.4153813123703003,
				-0.16266991198062897
			]
		},
		{
			"mesh":2,
			"name":"SphereNear",
			"scale":[
				0.6589276194572449,
				0.6589276194572449,
				0.6589276194572449
			],
			"translation":[
				-0.21738624572753906,
				1.2725540399551392,
				3.310494899749756
			]
		},
		{
			"mesh":3,
			"name":"Torus",
			"rotation":[
				0.5849385857582092,
				-0.2578933835029602,
				0.20341594517230988,
				0.7415927648544312
			],
			"translation":[
				1.9825774431228638,
				0.9250232577323914,
				0.9872663021087646
			]
		},
		{
			"extensions":{
				"KHR_lights_punctual":{
					"light":1
				}
			},
			"name":"L_Pt_Blue",
			"rotation":[
				-0.7071068286895752,
				0,
				0,
				0.7071068286895752
			],
			"translation":[
				1.2638909816741943,
				1.7813045978546143,
				1.6890809535980225
			]
		},
		{
			"extensions":{
				"KHR_lights_punctual":{
					"light":2
				}
			},
			"name":"L_Pt_Red",
			"rotation":[
				-0.7071068286895752,
				0,
				0,
				0.7071068286895752
			],
			"translation":[
				0.19519208371639252,
				1.4307339191436768,
				4.722548484802246
			]
		},
		{
			"extensions":{
				"KHR_lights_punctual":{
					"light":3
				}
			},
			"name":"L_St_Orange",
			"rotation":[
				-0.7071068286895752,
				0,
				0,
				0.7071068286895752
			],
			"translation":[
				-1.144805669784546,
				4.974778652191162,
				2.1045217514038086
			]
		},
		{
			"mesh":4,
			"name":"Cube",
			"scale":[
				15.082293510437012,
				0.12505581974983215,
				15.082293510437012
			],
			"translation":[
				0,
				0.7635732889175415,
				0
			]
		}
	],
	"cameras":[
		{
			"name":"Camera.001",
			"perspective":{
				"aspectRatio":1.7777777777777777,
				"yfov":0.4958353284296838,
				"zfar":1000,
				"znear":0.10000000149011612
			},
			"type":"perspective"
		}
	],
	"meshes":[
		{
			"name":"Sphere",
			"primitives":[
				{
					"attributes":{
						"POSITION":0,
						"NORMAL":1,
						"TEXCOORD_0":2
					},
					"indices":3
				}
			]
		},
		{
			"name":"Icosphere",
			"primitives":[
				{
					"attributes":{
						"POSITION":4,
						"NORMAL":5,
						"TEXCOORD_0":6
					},
					"indices":7
				}
			]
		},
		{
			"name":"Sphere.001",
			"primitives":[
				{
					"attributes":{
						"POSITION":8,
						"NORMAL":9,
						"TEXCOORD_0":10
					},
					"indices":11
				}
			]
		},
		{
			"name":"Torus",
			"primitives":[
				{
					"attributes":{
						"POSITION":12,
						"NORMAL":13,
						"TEXCOORD_0":14
					},
					"indices":15
				}
			]
		},
		{
			"name":"Cube",
			"primitives":[
				{
					"attributes":{
						"POSITION":16,
						"NORMAL":17,
						"TEXCOORD_0":18
					},
					"indices":19
				}
			]
		}
	],
	"accessors":[
		{
			"bufferView":0,
			"componentType":5126,
			"count":559,
			"max":[
				0.9999997019767761,
				1,
				0.9999993443489075
			],
			"min":[
				-0.9999990463256836,
				-1,
				-1
			],
			"type":"VEC3"
		},
		{
			"bufferView":1,
			"componentType":5126,
			"count":559,
			"type":"VEC3"
		},
		{
			"bufferView":2,
			"componentType":5126,
			"count":559,
			"type":"VEC2"
		},
		{
			"bufferView":3,
			"componentType":5123,
			"count":2880,
			"type":"SCALAR"
		},
		{
			"bufferView":4,
			"componentType":5126,
			"count":240,
			"max":[
				0.9510578513145447,
				1,
				0.9999999403953552
			],
			"min":[
				-0.9510578513145447,
				-1,
				-0.9999999403953552
			],
			"type":"VEC3"
		},
		{
			"bufferView":5,
			"componentType":5126,
			"count":240,
			"type":"VEC3"
		},
		{
			"bufferView":6,
			"componentType":5126,
			"count":240,
			"type":"VEC2"
		},
		{
			"bufferView":7,
			"componentType":5123,
			"count":240,
			"type":"SCALAR"
		},
		{
			"bufferView":8,
			"componentType":5126,
			"count":559,
			"max":[
				0.9999997019767761,
				1,
				0.9999993443489075
			],
			"min":[
				-0.9999990463256836,
				-1,
				-1
			],
			"type":"VEC3"
		},
		{
			"bufferView":9,
			"componentType":5126,
			"count":559,
			"type":"VEC3"
		},
		{
			"bufferView":10,
			"componentType":5126,
			"count":559,
			"type":"VEC2"
		},
		{
			"bufferView":11,
			"componentType":5123,
			"count":2880,
			"type":"SCALAR"
		},
		{
			"bufferView":12,
			"componentType":5126,
			"count":2304,
			"max":[
				1.25,
				0.25,
				1.25
			],
			"min":[
				-1.25,
				-0.25,
				-1.25
			],
			"type":"VEC3"
		},
		{
			"bufferView":13,
			"componentType":5126,
			"count":2304,
			"type":"VEC3"
		},
		{
			"bufferView":14,
			"componentType":5126,
			"count":2304,
			"type":"VEC2"
		},
		{
			"bufferView":15,
			"componentType":5123,
			"count":3456,
			"type":"SCALAR"
		},
		{
			"bufferView":16,
			"componentType":5126,
			"count":24,
			"max":[
				1,
				1,
				1
			],
			"min":[
				-1,
				-1,
				-1
			],
			"type":"VEC3"
		},
		{
			"bufferView":17,
			"componentType":5126,
			"count":24,
			"type":"VEC3"
		},
		{
			"bufferView":18,
			"componentType":5126,
			"count":24,
			"type":"VEC2"
		},
		{
			"bufferView":19,
			"componentType":5123,
			"count":36,
			"type":"SCALAR"
		}
	],
	"bufferViews":[
		{
			"buffer":0,
			"byteLength":6708,
			"byteOffset":0,
			"target":34962
		},
		{
			"buffer":0,
			"byteLength":6708,
			"byteOffset":6708,
			"target":34962
		},
		{
			"buffer":0,
			"byteLength":4472,
			"byteOffset":13416,
			"target":34962
		},
		{
			"buffer":0,
			"byteLength":5760,
			"byteOffset":17888,
			"target":34963
		},
		{
			"buffer":0,
			"byteLength":2880,
			"byteOffset":23648,
			"target":34962
		},
		{
			"buffer":0,
			"byteLength":2880,
			"byteOffset":26528,
			"target":34962
		},
		{
			"buffer":0,
			"byteLength":1920,
			"byteOffset":29408,
			"target":34962
		},
		{
			"buffer":0,
			"byteLength":480,
			"byteOffset":31328,
			"target":34963
		},
		{
			"buffer":0,
			"byteLength":6708,
			"byteOffset":31808,
			"target":34962
		},
		{
			"buffer":0,
			"byteLength":6708,
			"byteOffset":38516,
			"target":34962
		},
		{
			"buffer":0,
			"byteLength":4472,
			"byteOffset":45224,
			"target":34962
		},
		{
			"buffer":0,
			"byteLength":5760,
			"byteOffset":49696,
			"target":34963
		},
		{
			"buffer":0,
			"byteLength":27648,
			"byteOffset":55456,
			"target":34962
		},
		{
			"buffer":0,
			"byteLength":27648,
			"byteOffset":83104,
			"target":34962
		},
		{
			"buffer":0,
			"byteLength":18432,
			"byteOffset":110752,
			"target":34962
		},
		{
			"buffer":0,
			"byteLength":6912,
			"byteOffset":129184,
			"target":34963
		},
		{
			"buffer":0,
			"byteLength":288,
			"byteOffset":136096,
			"target":34962
		},
		{
			"buffer":0,
			"byteLength":288,
			"byteOffset":136384,
			"target":34962
		},
		{
			"buffer":0,
			"byteLength":192,
			"byteOffset":136672,
			"target":34962
		},
		{
			"buffer":0,
			"byteLength":72,
			"byteOffset":136864,
			"target":34963
		}
	],
	"buffers":[
		{
			"byteLength":136936,
			"uri":"lightTest.bin"
		}
	]
}
